<svg width="40" height="40" viewBox="0 0 40 40" fill="none" xmlns="http://www.w3.org/2000/svg">
<path d="M20 40C31.0457 40 40 31.0457 40 20C40 8.95431 31.0457 0 20 0C8.95431 0 0 8.95431 0 20C0 31.0457 8.95431 40 20 40Z" fill="#596CB9"/>
<path d="M25.0126 21.3513C27.0519 19.828 28.3787 17.3956 28.3787 14.6437C28.3787 10.0246 24.6441 6.28992 20.0249 6.28992C15.4057 6.28992 11.6711 10.0246 11.6711 14.6437C11.6711 17.3956 12.9979 19.828 15.0372 21.3513C9.2878 22.7518 5.45487 25.9705 4.71777 30.4914C8.37871 35.1597 13.6367 38.6978 20.0249 38.6978C26.4131 38.6978 31.7448 35.1597 35.4057 30.4914C34.4721 26.0688 30.762 22.7518 25.0126 21.3513Z" fill="white"/>
</svg>
