<svg width="72" height="46" viewBox="0 0 72 46" fill="none" xmlns="http://www.w3.org/2000/svg">
<path d="M37.619 15.0208H33.887V13.375H24.4731V20.0482C24.4731 23.5076 27.2854 26.3161 30.7587 26.3161H40.7473C44.2165 26.3161 47.0329 23.5117 47.0329 20.0482V13.375H37.619V15.0208Z" fill="#596CB9"/>
<path d="M33.8866 11.2992H37.6185V12.945H47.0324V6.27179C47.0324 2.81238 44.2201 0.00390625 40.7469 0.00390625H30.7582C27.289 0.00390625 24.4727 2.80828 24.4727 6.27179V12.945H33.8866V11.2992Z" fill="#596CB9"/>
<path d="M9.4139 11.2992H13.1458V12.945H22.5597V6.27179C22.5597 2.81238 19.7474 0.00390625 16.2742 0.00390625H0V12.945H9.4139V11.2992Z" fill="#596CB9"/>
<path d="M13.1458 15.0208H9.4139V13.375H0V26.3161H16.2742C19.7433 26.3161 22.5597 23.5117 22.5597 20.0482V13.375H13.1458V15.0208Z" fill="#596CB9"/>
<path d="M62.3504 15.0208H58.6185V13.375H49.2046V18.5989C49.2046 22.8608 52.6696 26.3202 56.9476 26.3202H58.3434C59.5258 26.3202 60.4824 25.3663 60.4824 24.1872V20.7442C60.4824 19.561 61.4431 18.603 62.6296 18.603H67.8312C70.0031 18.603 71.7602 16.8508 71.7602 14.6851C71.7602 14.2184 71.6535 13.7762 71.4728 13.3791H62.3504V15.0208Z" fill="#596CB9"/>
<path d="M58.6185 11.2994H61.4513C60.8765 10.976 60.4824 10.3701 60.4824 9.6618C60.4824 8.58917 61.3528 7.72125 62.4284 7.72125H69.4734C70.8077 7.72125 71.7684 6.3989 71.3209 5.14204C70.2576 2.14525 67.392 0 64.0213 0H56.9476C52.6737 0 49.2046 3.45532 49.2046 7.72125V12.9452H58.6185V11.2994Z" fill="#596CB9"/>
<path d="M6.87682 31.0449C8.12079 31.0449 9.04862 31.2783 9.65213 31.7491C10.2597 32.2199 10.5595 32.9445 10.5595 33.9271V34.1195C10.5595 34.3897 10.5266 34.6476 10.4609 34.8974C10.3952 35.1471 10.2885 35.3764 10.1448 35.5851C9.997 35.7939 9.80814 35.9782 9.57823 36.1378C9.34422 36.2934 9.05684 36.4162 8.70787 36.5022C9.06505 36.5554 9.38938 36.6496 9.68087 36.7765C9.97236 36.9075 10.2269 37.0835 10.4363 37.3046C10.6457 37.5257 10.8099 37.7918 10.9248 38.0988C11.0398 38.4059 11.0973 38.7703 11.0973 39.1919V39.4499C11.0973 40.4324 10.7935 41.198 10.1899 41.7425C9.58234 42.287 8.64628 42.5613 7.38179 42.5613H3.71147C3.19007 42.5613 2.83291 42.463 2.63174 42.2706C2.43057 42.0782 2.33203 41.7261 2.33203 41.2185V32.3918C2.33203 31.8842 2.43057 31.5321 2.63174 31.3397C2.83291 31.1473 3.19007 31.049 3.71147 31.049H6.87682V31.0449ZM4.39299 35.7243H6.08035C6.55659 35.7243 6.95072 35.6998 7.25863 35.6507C7.56654 35.6015 7.81287 35.5196 7.98941 35.4009C8.17005 35.2822 8.2891 35.1266 8.35479 34.9301C8.42048 34.7377 8.45333 34.488 8.45333 34.185V34.0376C8.45333 33.5177 8.26038 33.1779 7.87856 33.01C7.49265 32.8422 6.8645 32.7603 5.98592 32.7603H4.39299V35.7243ZM4.39299 40.8418H6.27741C6.73312 40.8418 7.13135 40.8254 7.47211 40.7927C7.81287 40.7599 8.09615 40.6863 8.31784 40.5757C8.53954 40.4611 8.70377 40.2973 8.81462 40.0803C8.92136 39.8634 8.97883 39.5768 8.97883 39.2206V39.0118C8.97883 38.7416 8.93367 38.5042 8.84746 38.2995C8.76124 38.0948 8.60934 37.9269 8.39175 37.7959C8.17416 37.6649 7.88266 37.5707 7.51317 37.5052C7.14367 37.4397 6.68386 37.407 6.13373 37.407H4.3971V40.8418H4.39299Z" fill="#3E3A39"/>
<path d="M20.552 33.7617C20.9297 33.7617 21.2212 33.8231 21.4306 33.9378C21.6235 34.0442 21.7549 34.1875 21.8206 34.3594C21.8863 34.5314 21.8945 34.732 21.8534 34.9572C21.8001 35.2601 21.6769 35.4935 21.4881 35.6613C21.2992 35.8292 21.0775 35.8865 20.8312 35.8333C20.6916 35.8128 20.5561 35.7842 20.4247 35.7514C20.2934 35.7186 20.1579 35.7023 20.0183 35.7023C19.7679 35.7023 19.5379 35.7514 19.3286 35.8497C19.1192 35.9479 18.9344 36.0789 18.7784 36.2468C18.6224 36.4146 18.4952 36.6152 18.4048 36.8445C18.3145 37.0778 18.2652 37.3276 18.2652 37.5978V41.79C18.2652 42.0807 18.1626 42.2977 17.9573 42.4369C17.7521 42.5761 17.5139 42.6457 17.243 42.6457C16.9843 42.6457 16.7462 42.5761 16.5368 42.4369C16.3275 42.2977 16.2207 42.0807 16.2207 41.79V34.6829C16.2207 34.4004 16.3192 34.1957 16.5204 34.0606C16.7216 33.9255 16.9433 33.86 17.1937 33.86C17.4524 33.86 17.6823 33.9296 17.8834 34.0606C18.0846 34.1957 18.1831 34.4045 18.1831 34.6829V35.2478H18.216C18.4418 34.7934 18.762 34.4331 19.1726 34.1629C19.579 33.8968 20.0429 33.7617 20.552 33.7617Z" fill="#3E3A39"/>
<path d="M27.7121 30.5078C28.0692 30.5078 28.373 30.6265 28.6194 30.864C28.8698 31.1014 28.993 31.3921 28.993 31.7401C28.993 32.084 28.8698 32.3788 28.6194 32.6162C28.3689 32.8537 28.0692 32.9724 27.7121 32.9724C27.3549 32.9724 27.0511 32.8537 26.8047 32.6162C26.5543 32.3788 26.4312 32.0881 26.4312 31.7401C26.4312 31.3962 26.5543 31.1014 26.8047 30.864C27.0511 30.6265 27.3549 30.5078 27.7121 30.5078ZM27.7121 33.8608C27.983 33.8608 28.2211 33.9304 28.4264 34.0696C28.6317 34.2088 28.7343 34.4258 28.7343 34.7164V41.7908C28.7343 42.0815 28.6317 42.2985 28.4264 42.4377C28.2211 42.5769 27.983 42.6465 27.7121 42.6465C27.4534 42.6465 27.2153 42.5769 27.0059 42.4377C26.7965 42.2985 26.6898 42.0815 26.6898 41.7908V34.7164C26.6898 34.4258 26.7965 34.2088 27.0059 34.0696C27.2153 33.9304 27.4493 33.8608 27.7121 33.8608Z" fill="#3E3A39"/>
<path d="M40.9441 30.541C41.215 30.541 41.4532 30.6106 41.6584 30.7498C41.8637 30.889 41.9664 31.106 41.9664 31.3967V41.824C41.9664 42.1065 41.8678 42.3112 41.6667 42.4463C41.4655 42.5814 41.2438 42.6469 40.9933 42.6469C40.7429 42.6469 40.5212 42.5814 40.3283 42.4463C40.1353 42.3112 40.0368 42.1024 40.0368 41.824V41.5006H39.9875C39.7494 41.9305 39.3963 42.2375 38.9324 42.4136C38.4685 42.5937 37.9635 42.6797 37.4216 42.6797C36.2843 42.6797 35.4263 42.3194 34.8474 41.603C34.2686 40.8865 33.9771 39.8303 33.9771 38.4383V38.0166C33.9771 37.3166 34.0633 36.6984 34.2357 36.1621C34.4081 35.6257 34.6504 35.1836 34.9665 34.8274C35.2785 34.4712 35.6562 34.2051 36.0955 34.025C36.5348 33.8449 37.0233 33.7589 37.5653 33.7589C37.9224 33.7589 38.2345 33.7916 38.4972 33.8571C38.7641 33.9226 38.9899 34.0004 39.1787 34.0905C39.3676 34.1806 39.5236 34.2829 39.6426 34.3976C39.7617 34.5122 39.852 34.6145 39.9177 34.7128V31.3926C39.9177 31.1019 40.0245 30.8849 40.2338 30.7457C40.4514 30.6147 40.6854 30.541 40.9441 30.541ZM37.9101 35.5152C36.6415 35.5152 36.0093 36.3668 36.0093 38.0739V38.3974C36.0093 39.2735 36.153 39.9162 36.4403 40.3338C36.7277 40.7514 37.1917 40.9561 37.828 40.9561C38.1647 40.9561 38.4644 40.8988 38.7271 40.7883C38.9899 40.6777 39.2157 40.5181 39.3922 40.3175C39.5728 40.1168 39.7083 39.8876 39.8069 39.6215C39.9054 39.3554 39.9547 39.0729 39.9547 38.7699V37.2797C39.9547 37.075 39.9136 36.8662 39.8315 36.6574C39.7494 36.4486 39.6262 36.2603 39.4579 36.0925C39.2896 35.9246 39.0802 35.7895 38.8256 35.679C38.5711 35.5684 38.2673 35.5152 37.9101 35.5152Z" fill="#3E3A39"/>
<path d="M50.752 33.7617C51.0968 33.7617 51.4048 33.7945 51.6757 33.86C51.9467 33.9255 52.1807 34.0074 52.3819 34.1015C52.583 34.1998 52.7472 34.3021 52.8786 34.4168C53.01 34.5314 53.1044 34.6337 53.1701 34.732H53.1865V34.6829C53.1865 34.4004 53.2851 34.1957 53.4862 34.0606C53.6874 33.9255 53.9173 33.86 54.176 33.86C54.4264 33.86 54.6481 33.9296 54.8493 34.0606C55.0504 34.1957 55.149 34.4045 55.149 34.6829V42.31C55.149 43.5504 54.8082 44.4757 54.1267 45.0857C53.4452 45.6957 52.3695 45.9986 50.8957 45.9986C50.4194 45.9986 49.9555 45.9372 49.4998 45.8144C49.0441 45.6916 48.6664 45.5401 48.3626 45.3682C48.145 45.2494 48.0218 45.0693 47.989 44.8237C47.9561 44.5821 48.0013 44.3569 48.1204 44.1523C48.2517 43.9271 48.4077 43.7756 48.5925 43.6978C48.7772 43.62 48.9948 43.6446 49.2412 43.7633C49.4588 43.8821 49.7215 43.9885 50.0294 44.0867C50.3373 44.185 50.637 44.2341 50.9285 44.2341C51.6552 44.2341 52.2053 44.0827 52.5748 43.7797C52.9484 43.4767 53.1373 42.9814 53.1373 42.2895V41.2865H53.1044C52.8663 41.7204 52.5256 42.0193 52.0822 42.1953C51.6388 42.3673 51.1461 42.4532 50.6042 42.4532C49.467 42.4532 48.6089 42.0971 48.03 41.3847C47.4512 40.6724 47.1597 39.6366 47.1597 38.2774V37.954C47.1597 36.5743 47.4881 35.5262 48.1409 34.8221C48.8019 34.1179 49.6722 33.7617 50.752 33.7617ZM51.0927 35.5139C50.4441 35.5139 49.9637 35.7268 49.6558 36.1526C49.3479 36.5784 49.1919 37.1966 49.1919 38.0072V38.2324C49.1919 39.0757 49.3356 39.7021 49.623 40.1115C49.9104 40.5209 50.3743 40.7256 51.0106 40.7256C51.3473 40.7256 51.647 40.6683 51.9097 40.5536C52.1766 40.439 52.3983 40.2834 52.5748 40.0828C52.7555 39.8822 52.8909 39.653 52.9895 39.3869C53.088 39.1208 53.1373 38.8383 53.1373 38.5353V37.2703C53.1373 37.0656 53.0962 36.8568 53.0141 36.648C52.932 36.4392 52.8088 36.2509 52.6405 36.083C52.4722 35.9152 52.2628 35.7801 52.0083 35.6695C51.7578 35.5672 51.4499 35.5139 51.0927 35.5139Z" fill="#3E3A39"/>
<path d="M64.4438 33.7617C65.0268 33.7617 65.5605 33.8477 66.0368 34.0196C66.513 34.1916 66.9236 34.4413 67.2725 34.7647C67.6174 35.0882 67.8884 35.4894 68.0772 35.9643C68.2661 36.4392 68.3605 36.9837 68.3605 37.5978V37.6305C68.3605 38.1382 68.262 38.4903 68.0608 38.6827C67.8596 38.8751 67.5024 38.9734 66.981 38.9734H62.3706V39.0061C62.3706 39.5875 62.5512 40.0624 62.9166 40.4308C63.2779 40.7993 63.8239 40.9835 64.5506 40.9835C65.0063 40.9835 65.4045 40.9467 65.7453 40.8771C66.086 40.8075 66.435 40.6928 66.7922 40.5291C67.0098 40.4308 67.2192 40.4185 67.4244 40.4881C67.6297 40.5577 67.7816 40.7051 67.8801 40.9344C67.9787 41.1596 67.9992 41.3806 67.9458 41.5894C67.8925 41.7982 67.757 41.9579 67.5394 42.0684C67.1288 42.2731 66.6772 42.4287 66.1928 42.531C65.7042 42.6334 65.1336 42.6866 64.4726 42.6866C63.1752 42.6866 62.1653 42.3345 61.4509 41.6263C60.7366 40.918 60.3794 39.8577 60.3794 38.4452V38.0236C60.3794 36.6193 60.7407 35.559 61.4674 34.8425C62.1776 34.122 63.1752 33.7617 64.4438 33.7617ZM64.411 35.4484C63.7295 35.4484 63.2163 35.6286 62.8755 35.9848C62.5348 36.3409 62.3624 36.7954 62.3624 37.344V37.4586H66.3899V37.2948C66.3899 36.7667 66.2379 36.3246 65.9341 35.9766C65.6344 35.6245 65.1254 35.4484 64.411 35.4484Z" fill="#3E3A39"/>
</svg>
